
<svg xmlns="http://www.w3.org/2000/svg" xmlns:xlink="http://www.w3.org/1999/xlink" xml:space="preserve" width="297mm" height="210mm" viewBox="0 0 297 210" style="clip-rule:evenodd;fill-rule:evenodd;image-rendering:optimizeQuality;shape-rendering:geometricPrecision;text-rendering:geometricPrecision">
  <defs>
    <style type="text/css">
      
    .str3 {stroke:#2F3133;stroke-width:0.1}
    .str2 {stroke:black;stroke-width:0.1;stroke-opacity:0.501961}
    .str0 {stroke:black;stroke-width:0.1}
    .str1 {stroke:black;stroke-width:0.5}
    .fil1 {fill:none}
    .fil3 {fill:#1F1A17;fill-rule:nonzero}
    .fil4 {fill:#C2C1C1;fill-rule:nonzero}
    .fil0 {fill:white;fill-rule:nonzero}
    .fil5 {fill:black;fill-rule:nonzero}
    .fil2 {fill:white;fill-rule:nonzero;fill-opacity:0.501961}
   
    </style>
  </defs>
  <symbol id="capital" viewBox="147.973 104.473 1.0539 1.0539">
    <circle class="fil5" cx="148.5" cy="105" r="0.526885"/>
  </symbol>
  <g id="contents">
    <metadata id="CorelCorpID_0Corel-Layer"/>
    <path class="fil0 str0" id="outline" d="M182.82 44.5351c0.277 0.0641 0.4691 0.16 0.5966 0.4264 0.075-0.16 0.1494-0.2132 0.2562-0.3411 0.1493-0.1812 0.2346-0.3411 0.3841-0.5117 0.4263-0.4693 0.7784-0.7141 0.9806-1.322-0.117-0.0321-0.2238-0.1279-0.3411-0.0853-0.0747 0.0211-0.0747 0.1279-0.1279 0.1706-0.1705 0.1494-0.2344 0.2984-0.3838 0.4689-0.0425 0.0537-0.1278 0.0427-0.1705 0.0853-0.0426 0.0427-0.0321 0.128-0.0856 0.1705-0.4155 0.3732-0.7781 0.48-1.1086 0.9384zm77.4947 26.8562l0 0.352 0.1702 0.0426c0.6509-0.3731 1.0667-0.5225 1.7063-0.8956 0.5757-0.3306 0.7998-0.7143 1.3647-1.066 0.3946-0.2456 0.6398-0.384 1.024-0.6399 0.2773-0.1811 0.3727-0.3943 0.5969-0.6395 0.224-0.2453 0.4475-0.3199 0.6821-0.5543 0.2241-0.2241 0.3203-0.3841 0.5546-0.5973 0.3732-0.3411 0.6823-0.4799 1.0237-0.8531 0.309-0.3411 0.7678-0.4689 0.7678-0.938 0-0.0637-0.0427-0.1064-0.0427-0.1705-0.0746 0.0211-0.1493-0.0426-0.2134 0-0.5438 0.3943-0.6932 0.8742-1.3222 1.1085-0.2554 0.0962-0.4475 0.0962-0.6821 0.2136-0.2777 0.149-0.3947 0.3517-0.6826 0.469-0.6078 0.2558-0.9383 0.4369-1.5779 0.5969-1.0025 0.2453-1.4503 0.7463-2.2178 1.4074-0.4693 0.4051-0.6825 0.7462-0.8958 1.3221-0.1172 0.3199-0.2558 0.501-0.2558 0.8421zm-44.3985 2.6548l0 0 0-1.0342c0-0.2664 0.1174-0.4158 0.1706-0.6716 0.0531-0.2774-0.0747-0.5969 0.1702-0.7249 0.0538-0.0215 0.1177-0.0215 0.1709-0.0426 0.5119-0.2879 0.9383-0.1603 1.4073-0.512 0.0426-0.0317-0.0215-0.1173 0-0.1705l0 0.0001c0.0535-0.6717 0.011-1.0982 0.1706-1.7487l0 0c-0.4902-0.2769-0.5543-0.7248-0.7675-1.2365-0.2879-0.7145-0.4799-1.1408-0.7252-1.8766-0.2346-0.7037-0.5116-1.0768-0.8954-1.7055-0.1599-0.2562-0.2666-0.4161-0.4693-0.6399-0.0427-0.0532-0.0321-0.1385-0.0853-0.1706-0.2664-0.1814-0.5225-0.1282-0.853-0.1282-0.2027 0-0.3196 0.0962-0.5117 0.1282-0.1173 0.0106-0.2452-0.0641-0.3414 0-0.0529 0.0321-0.0427 0.1174-0.0853 0.1706-0.1385 0.1705-0.2344 0.309-0.3411 0.5117-0.1814 0.3414-0.3305 0.5436-0.5543 0.8531-0.1921 0.2558-0.3308 0.3942-0.4693 0.6821-0.0958 0.192-0.0642 0.4052-0.2558 0.5117-0.0533 0.0214-0.1174-0.0427-0.1705-0.0427-0.1174 0.0109-0.2242 0.0109-0.3411 0.0427-0.2668 0.0747-0.4053 0.2346-0.6827 0.2987-0.0429-0.1278-0.1067-0.2131-0.1282-0.3414-0.0317-0.1917 0.0539-0.3196 0-0.5116-0.0317-0.1385-0.2129-0.1917-0.2129-0.3411 0-0.2237 0.1702-0.3411 0.2982-0.5117 0.1815-0.2455 0.2562-0.4373 0.4267-0.6825 0.2347-0.3199 0.5757-0.4264 0.64-0.8105 0.0637-0.3833-0.0322-0.6501 0.0852-1.0232 0.1494-0.4478 0.3411-0.7036 0.3411-1.1833l0-1.0451c0-0.4905-0.1705-0.7675-0.4263-1.1832-0.1601-0.2664-0.2668-0.4479-0.4691-0.6826-0.1388-0.1596-0.3414-0.2449-0.3414-0.469 0-0.0747 0.0747-0.1064 0.0852-0.1706 0.0853-0.3625 0.2562-0.5648 0.2562-0.9383 0-0.2984-0.352-0.3731-0.6403-0.4264-0.2769-0.0531-0.4368-0.1278-0.6818-0.2558-0.3309-0.1705-0.4908-0.4052-0.8534-0.5116-0.309-0.0853-0.5226-0.0215-0.8528 0-0.4908 0.0321-0.7251-0.2558-1.1945-0.384-0.1917-0.0533-0.309-0.0533-0.5116-0.085-0.3302-0.0536-0.5332 0.0638-0.8531 0-0.3305-0.0642-0.4264-0.4267-0.7674-0.4267-0.2777 0-0.4264 0.1064-0.6826 0.2131-0.277 0.1068-0.469 0.2242-0.6396 0.4691-0.2772 0.4052-0.2456 0.7463-0.4693 1.1942 0.3837 0.1599 0.6505 0.1599 1.0237 0.3414-0.3732 0.3728-0.64 0.6395-1.1516 0.7675-0.1494 0.1493-0.1706 0.3516-0.1706 0.5651l0 1.3433c0 0.4052 0 0.6504-0.1278 1.0342-0.3626-0.0215-0.6611-0.0427-0.8531-0.3411-0.2985-0.4479-0.2562-0.8211-0.2562-1.3647l-0.4158 0c-0.2022 0-0.2559 0.2131-0.3516 0.3837-0.1065 0.192-0.2027 0.3199-0.2985 0.5116-0.2027 0.4158-0.3732 0.6825-0.7678 0.9384-0.1174 0.0746-0.2558 0.0637-0.3411 0.1705-0.16 0.1921-0.0853 0.4267-0.128 0.6822-0.0426 0.2667-0.0957 0.4373-0.2131 0.6825-0.0856 0.1811-0.2136 0.2985-0.2136 0.5116 0 0.0748 0.0853 0.0959 0.0853 0.1706 0.0427 0.4053 0.1283 0.629 0.1283 1.0342l0 0.8316c0 0.7146-0.3841 1.0878-0.3841 1.8017 0 0.6504 0.3094 0.9703 0.3841 1.6209 0.0853 0.6927 0.0212 1.2153 0.5116 1.7058 0.2879 0.2879 0.5226 0.4048 0.7675 0.7248 0.4588 0.5973 0.3308 1.1409 0.5123 1.8764 0.074 0.3305 0.2129 0.5225 0.2129 0.8636l0 1.0448c0 0.4693-0.0959 0.7357-0.1276 1.2048-0.0113 0.2131 0.0212 0.3411 0 0.5545-0.0325 0.3411-0.1709 0.5117-0.2135 0.8528-0.0427 0.4052-0.128 0.629-0.2132 1.0236-0.0641 0.277-0.0426 0.4584-0.1282 0.7248-0.1597 0.4905-0.3408 0.7463-0.597 1.1942-0.1067 0.1917-0.1494 0.3305-0.2559 0.512-0.2237 0.3623-0.501 0.4475-0.853 0.6822-0.6289 0.4263-1.0342 0.7674-1.7911 0.7674-0.2668 0-0.4052-0.1811-0.5973-0.3411-0.4157-0.352-0.5648-0.6825-0.853-1.1515-0.2774-0.4478-0.4799-0.7036-0.6822-1.1939-0.1279-0.3093-0.2988-0.5014-0.2988-0.8424l0-1.2154c0-0.533 0-0.8209-0.0427-1.3541-0.0531-0.6607-0.5222-0.9274-0.7678-1.5349-0.0426-0.1174-0.0317-0.2241-0.0426-0.3414-0.0426-0.2559-0.085-0.4264-0.1275-0.6822-0.1178-0.7252-0.2989-1.141-0.2989-1.8764 0-0.5652 0.2453-0.8422 0.469-1.3647 0.0641-0.16 0.1709-0.2453 0.1709-0.4267 0-0.245-0.0852-0.3728-0.1709-0.597-0.0743-0.3196-0.1276-0.6077-0.1276-0.938 0-0.5651 0.1706-0.8956 0.3838-1.4073 0.1068-0.2558 0.2558-0.3947 0.2558-0.6825 0-0.3411-0.1705-0.5116-0.1705-0.8527 0-0.5438 0.1917-0.8531 0.3411-1.3648 0.1705-0.5973 0.2773-0.9595 0.512-1.5353 0.0531-0.1278 0.1384-0.2025 0.1705-0.3411 0.1174-0.4158-0.0212-0.6931 0.0853-1.1089 0.0106-0.0747 0.1174-0.0958 0.1279-0.1705 0.0532-0.1921 0.032-0.3094 0.0426-0.512-0.4904 0.2026-0.8957 0.3199-1.1089 0.8105-0.2237 0.5226-0.1705 0.8847-0.469 1.3647-0.0641 0.1173-0.1173 0.2346-0.2131 0.3411-0.0963 0.1068-0.2453 0.1068-0.3415 0.2131-0.1921 0.2136-0.2238 0.4373-0.3841 0.6825-0.3728 0.5544-0.5863 0.9381-1.1938 1.2365l0-0.3516c0-0.469 0.1173-0.7463 0.2558-1.1836 0.0856-0.2558 0.1068-0.437 0.2136-0.6822 0.1811-0.4158 0.4263-0.6396 0.4263-1.0979l0-0.789c0-0.4905 0.2343-0.7678 0.469-1.1836 0.3094-0.5331 0.4479-0.8527 0.7248-1.4074 0.203-0.4052 0.3203-0.6396 0.5546-1.0233 0.1065-0.1814 0.2238-0.2988 0.2559-0.5119 0.0747-0.4585-0.0748-0.7249 0-1.1942l0.1709 0.0426c0.1064 0.2773 0.0853 0.5547 0.3411 0.7252 0.1706 0.1068 0.309 0.1494 0.512 0.2131 0.106-0.4583 0.4795-0.7247 0.9486-0.7247 0.0641 0 0.0957 0.0426 0.1599 0.0426-0.0215 0.1279-0.0321 0.2343-0.0849 0.341-0.0642 0.128-0.2136 0.1921-0.2136 0.3411 0 0.2664 0.1709 0.4158 0.3838 0.5547 0.2562-0.3947 0.3946-0.661 0.6399-1.0663 0.1279-0.2131 0.2985-0.2984 0.4267-0.5116 0.192-0.3094 0.3407-0.5546 0.6822-0.6826 0.1173-0.0426 0.2241 0 0.341-0.0426 0.2133-0.0746 0.3201-0.2238 0.512-0.341 0.4264-0.2668 0.6611-0.4479 1.0234-0.8105 0.1814-0.1812 0.2882-0.2876 0.4693-0.4691 0.0532-0.0531 0.0321-0.1384 0.0856-0.1705 0.1596-0.1067 0.3087-0.0853 0.5117-0.0853 0.5328 0 0.8421 0.0853 1.3647 0.1705 0.0638 0.0106 0.1064 0.0748 0.1705 0.0853 0.2558 0.0533 0.4369 0.0427 0.6825 0.128 0.2985 0.1068 0.3626 0.469 0.6822 0.469 0.1495 0 0.1921-0.1705 0.2562-0.2985 0.0958-0.1705 0.0958-0.3199 0.1276-0.5116 0.0324-0.1917 0.0853-0.309 0.0853-0.5116l0.4693 0 1.2368 0.4263c0.1815-0.1174 0.2879-0.2237 0.4267-0.3841 0.1065-0.1169 0.2129-0.2131 0.2129-0.3833 0-0.1709-0.1917-0.1921-0.3407-0.2562-0.203-0.0853-0.3204-0.149-0.512-0.2558-0.4053-0.2238-0.4694-0.5863-0.8528-0.8531-0.0641-0.0427-0.0426-0.1702-0.1283-0.1702-0.1384 0-0.2132 0.0849-0.341 0.1275-0.1921 0.0642-0.3305 0.0642-0.512 0.1283-0.5441 0.2022-0.8637 0.4264-1.45 0.4264-0.32 0-0.48-0.1921-0.7249-0.3838-0.2135-0.1709-0.4693-0.2667-0.4693-0.5436l0-1.0452c0-0.2023 0.0959-0.3196 0.1706-0.501l-0.1706 0.0426c-0.5652 0.2773-0.8316 0.5331-1.4077 0.7678-0.309 0.1174-0.5328 0.1385-0.8527 0.2558-0.4158 0.149-0.6079 0.3732-1.0237 0.512-0.6078 0.2023-1.0236 0.277-1.5352 0.6822-0.1921 0.1491-0.2348 0.3305-0.3841 0.5116-0.2026 0.2347-0.4049 0.32-0.6826 0.469-0.2233 0.1174-0.3407 0.2559-0.5969 0.3415l-1.45-0.3841-0.853 0.2135c-0.6826-0.1068-1.0448-0.4373-1.4927-0.9383-0.1494-0.1706-0.2347-0.3091-0.4264-0.4264-0.6507-0.4053-1.1092-0.501-1.877-0.5972-0.1702-0.0212-0.2555-0.0853-0.426-0.0853-0.4373 0-0.5438 0.4158-0.9387 0.5969-0.0638 0.0215-0.128-0.0106-0.1917 0-0.011-0.2023 0-0.3197 0-0.5222 0-0.5332 0.0317-0.8848 0.2773-1.3541 0.0959-0.1917 0.3196-0.2023 0.5116-0.2985 0.3732-0.1812 0.5648-0.3626 0.8105-0.6822 0.1811-0.2347 0.192-0.4264 0.3411-0.6822 0.1388-0.2456 0.2343-0.3946 0.2558-0.6825l-0.3306 0c-0.0743 0-0.1172 0.0747-0.181 0.0852-0.331 0.0959-0.5226 0.2027-0.8532 0.2985-0.2561 0.0747-0.4263 0.1067-0.6825 0.2132-0.7142 0.3093-0.97 0.7678-1.5778 1.2368-0.1174 0.0853-0.2242 0.1279-0.3411 0.2132-0.4053 0.2879-0.512 0.6078-0.8105 1.0236-0.0426 0.0641-0.1385 0.0641-0.1706 0.1279-0.032 0.0532-0.0215 0.1279-0.0426 0.1706-0.4052 0.5863-1.1621 0.4583-1.4499 1.1089-0.1815 0.4048-0.331 0.7463-0.7679 0.8527-0.2562 0.0641-0.4369-0.0959-0.6826 0-0.1384 0.0532-0.2025 0.16-0.2984 0.2562-0.2879 0.2875-0.4373 0.5222-0.7252 0.81-0.1705 0.1705-0.2449 0.3626-0.4689 0.4265-0.1174 0.032-0.2242 0.0214-0.3411 0.0426-0.5441 0.1279-0.8534 0.2988-1.4078 0.3837-0.6395 0.1067-1.0873-0.1491-1.674 0.1282l0-1.2156c0-0.1385 0.0535-0.2343 0.0108-0.3623-0.0426-0.1388-0.1384-0.2131-0.2131-0.3414-0.7572 0.3731-1.301 0.352-2.0476 0.7252-0.7671 0.3836-1.2794 0.5969-2.1431 0.5969-0.2235 0-0.3623-0.0321-0.5864 0l0-0.3411c0.16-0.2773 0.3309-0.3732 0.5547-0.5969 0.2985-0.2989 0.3946-0.5226 0.7248-0.7678 0.0426-0.0318 0.1279-0.0212 0.1706-0.0427 0.1388-0.0959 0.1388-0.2237 0.2561-0.3411 0.3305-0.3305 0.5652-0.5226 0.8531-0.8953 0.437-0.5653 0.5011-1.0557 1.0236-1.5356 0.3626-0.3303 0.5863-0.5543 0.8527-0.9807 0.1494-0.2452 0.1921-0.4694 0.4268-0.6399 0.117-0.0853 0.2134-0.1064 0.3411-0.1706 0.3414-0.1916 0.5116-0.3621 0.853-0.5542 0.5543-0.3199 0.9384-0.4264 1.5353-0.6825 0.1494-0.0638 0.192-0.1812 0.3414-0.2558 0.5816-0.2858 0.8348-0.6355 1.2914-1.0492l0 0-2.7414-0.3582c-0.3309 0.0216-0.5441 0.0216-0.8531 0.128-0.3199 0.1173-0.5116 0.2558-0.8531 0.2558-0.3946 0-0.4908-0.4264-0.8531-0.5543-0.1811-0.0641-0.3094-0.0215-0.5116-0.0426-0.1279-0.0106-0.2132-0.0853-0.3414-0.0853-0.1706 0-0.2133 0.16-0.3411 0.2558-0.3838 0.2879-0.6181 0.5973-1.1089 0.5973-0.32 0-0.5116-0.1068-0.7678-0.2989-0.128-0.0958-0.1174-0.2558-0.2555-0.341-0.2347-0.1494-0.4162-0.1494-0.683-0.2132-0.341-0.0852-0.5542-0.1385-0.8527-0.2985-0.1494-0.0747-0.181-0.2667-0.3411-0.2987-0.2881-0.0639-0.4693-0.0427-0.7678-0.0427-0.3411 0-0.4161 0.3629-0.5969 0.6399-0.2667-0.2132-0.3093-0.4479-0.4267-0.7674-0.1384-0.3947-0.1525-0.8052-0.403-1.2749-0.5367-0.0859-0.9928 0.3787-1.4423 0.5207-0.4906 0.1551-0.9749 0.3115-1.4938 0.2048-0.1512-0.0311-0.4751-0.1448-0.5817-0.2521-0.0936 0-0.0322-0.032-0.165 0.0173-0.2027 0.0638-0.2964 0.0909-0.4779 0.1871-0.1279 0.0744-0.1916 0.2132-0.3411 0.2132-0.2667 0-0.3622-0.2562-0.5116-0.4694-0.1279-0.1811-0.3094-0.2347-0.512-0.2984-0.309-0.0959-0.5332-0.0532-0.8527-0.128-0.2347-0.0532-0.3521-0.1705-0.5973-0.1705-0.4373 0-0.6719 0.2558-1.1089 0.2558-0.3946 0-0.6934-0.2244-0.9121-0.6472-0.2806-0.4593-0.4714-0.8898-0.6142-1.3232-0.1177-0.3576-0.3223-0.9509-0.5582-1.2368-0.1324-0.1603-0.2856-0.4336-0.456-0.5357-0.0313 0-0.056 0.0046-0.0864 0.0079-0.3615 0.2818-0.414 0.6797-0.5897 1.0792-0.1075 0.2442-0.1686 0.7367-0.3223 0.9296-0.0054 0.0444-0.0435 0.1627-0.0707 0.1969-0.0051 0.0416-0.0453 0.1273-0.0586 0.1646-38.5874 2.8201-76.7644-2.0211-114.5-14.4967l0 0c0.1394 0.1313 0.3167 0.2477 0.4542 0.4234 0.2129 0.2774 0.2238 0.5335 0.3838 0.8531 0.3195 0.64 0.9383 0.8637 0.9383 1.578 0 0.2346-0.0747 0.4267-0.2561 0.5545-0.1706 0.117-0.4264 0.1276-0.4264 0.3411 0 0.5864 0.4264 0.8633 0.4264 1.45 0 0.1703-0.1065 0.2559-0.0853 0.4265 0 0.0425 0.0747 0.0425 0.0747 0.0852 0 0.0958-0.0532 0.1706-0.0321 0.2558 0.1068 0.3731 0.3841 0.5437 0.3841 0.9384 0 0.2452-0.1174 0.3943-0.2562 0.5969-0.0852 0.1388-0.1174 0.2668-0.2558 0.3411-0.1811 0.1067-0.3411 0.0426-0.5116 0.1705-0.3838 0.2879-0.4264 0.7037-0.4264 1.1942 0 0.1705 0.0853 0.2562 0.0853 0.4264 0 0.2346-0.0751 0.3735-0.128 0.5972-0.0426 0.2023-0.032 0.3626-0.1709 0.5116-0.1919 0.2133-0.4373 0.2343-0.6821 0.3838-0.2882 0.1709-0.3627 0.4584-0.6826 0.5546-0.352 0.1064-0.5648 0.2132-0.9383 0.2132-0.469 0-0.7143-0.2988-1.0236-0.6396l0-1.1515c0.5546 0.0317 0.853 0.2985 1.4073 0.2985 0.2026 0 0.3415 0.0425 0.512-0.0427 0.2449-0.1279 0.2769-0.3837 0.3837-0.6399 0.16-0.3837 0.2773-0.6075 0.3415-1.0232-0.4909-0.2027-0.7463-0.3411-1.1946-0.64 0.2136-0.2449 0.3309-0.4475 0.5973-0.6395 0.3838-0.2879 0.704-0.4369 0.8527-0.8957-0.3517 0-0.6181-0.0426-0.8527-0.2984-0.0426-0.0533-0.1384-0.0639-0.1706-0.128-0.224-0.3732-0.384-0.661-0.8103-0.7674-0.789-0.1921-1.1195-0.6611-1.8768-0.9384-0.2449-0.0853-0.4264-0.0958-0.6822-0.1705-0.3837-0.1068-0.5652-0.3305-0.8953-0.5544-0.3736-0.2558-0.6297-0.3836-1.024-0.5972-0.2985-0.16-0.3626-0.4049-0.5969-0.6395-0.1705-0.1709-0.2879-0.2668-0.4694-0.4264-0.2343 0.2343-0.3411 0.4049-0.5116 0.6822-0.1709 0.2878-0.4264 0.4264-0.4264 0.7678 0 0.9701 0.3838 1.5032 0.3838 2.4733 0 0.5437-0.1709 0.8636-0.1709 1.4074 0 0.5648 0.1067 0.9062 0.2135 1.4499 0.0427 0.2237 0.1279 0.3623 0.1279 0.5969 0 0.4373-0.1173 0.6932-0.2558 1.1089 0.1916 0.0959 0.309 0.1068 0.5116 0.1706 0.1385 0.0426 0.3411 0.0641 0.3411 0.2132 0 0.1384-0.1279 0.2026-0.2132 0.2984-0.2325 0.2616-0.5897 0.6037-0.6395 0.8531 0.0211 0.3517 0.0853 0.5863 0.2984 0.8527 0.16 0.2027 0.3838 0.2883 0.3838 0.5543 0 0.1173-0.1068 0.1603-0.1706 0.2562-0.2238 0.3199-0.5011 0.5116-0.8954 0.5116-0.0109 0.2026 0.0318 0.32 0 0.5117-0.0215 0.1388-0.1709 0.192-0.1709 0.3414 0 0.2131 0.2027 0.2876 0.3838 0.3837 0.192 0.1068 0.3309 0.1385 0.512 0.2558 0.3411 0.2238 0.4369 0.48 0.6825 0.8105l0.0853 0.1705c-0.629-0.3093-1.1198-0.2026-1.7488-0.5116-0.1815 0.3728-0.1706 0.6501-0.3415 1.0233-0.2023 0.4584-0.3728 0.7248-0.4263 1.2368-0.0212 0.2026 0.0641 0.3094 0.0425 0.5116-0.0425 0.3521-0.2558 0.5014-0.2984 0.8531-0.0211 0.2026 0.0212 0.3305-0.0423 0.5117-0.0539 0.1599-0.2241 0.1811-0.2562 0.3414-0.0425 0.2023-0.032 0.3517-0.0852 0.5542-0.1173 0.3838-0.3841 0.5116-0.5969 0.8528-0.4267 0.6826-0.661 1.1195-0.9384 1.8764-0.0747 0.2025-0.1815 0.3093-0.2562 0.512-0.2874 0.7784-0.2769 1.279-0.5969 2.0469-0.3516 0.853-0.7357 1.2579-1.1514 2.0895-0.128 0.2668-0.3201 0.3731-0.4267 0.6399-0.0427 0.1173-0.0106 0.2238-0.0427 0.3411-0.1388 0.4157-0.2876 0.6395-0.5117 1.0236-0.2346 0.4049-0.3414 0.6822-0.6825 1.0232-0.2452 0.2454-0.4901 0.3306-0.6396 0.6396-0.032 0.0747-0.1278 0.0857-0.1278 0.1709 0 0.1706 0.0852 0.2558 0.0852 0.4264 0 0.3305-0.1709 0.5222-0.3841 0.7678-0.3731 0.426-0.5757 0.6822-0.8104 1.1938-0.1174 0.2558-0.2555 0.3944-0.2555 0.6825 0 0.3302 0.1279 0.5223 0.1279 0.8528 0 0.4905-0.0853 0.7783-0.2562 1.2368-0.0637 0.1917-0.1705 0.309-0.2131 0.5116-0.1709 0.6932-0.1709 1.1195-0.1709 1.8342 0 0.3621 0.2135 0.5542 0.2135 0.9164 0 0.1921-0.1279 0.2774-0.2135 0.4479-0.1276 0.2668-0.2129 0.4584-0.2129 0.7569 0 0.2346 0.0853 0.4158 0.0853 0.6504 0.0638 0.5649 0.1705 0.8852 0.1705 1.4501 0 0.7357-0.4373 1.0874-0.6398 1.7911-0.0853 0.3199-0.1491 0.5116-0.1702 0.8527-0.0215 0.2667 0.0528 0.4267 0 0.6825-0.0427 0.2237-0.1921 0.3411-0.3414 0.512-0.3201 0.3728-0.5865 0.5437-0.9384 0.8953-0.2985 0.2985-0.3943 0.5226-0.6826 0.8101-0.181 0.1815-0.4264 0.288-0.4264 0.5547 0 0.16 0.0853 0.2558 0.0853 0.4158l0 1.5564c0 0.1388 0.1601 0.16 0.2558 0.2452 0.2348 0.2132 0.352 0.3731 0.512 0.6399 0.2238 0.3622 0.3412 0.6181 0.469 1.0232 0.2136 0.6612 0.2136 1.0875 0.2136 1.7912 0 0.4373-0.0427 0.6825-0.1279 1.1089-0.0215 0.1173-0.011 0.2241-0.043 0.3411-0.1173 0.3626-0.2985 0.5546-0.2985 0.9383 0 0.1706 0.0853 0.2559 0.0853 0.4264 0 0.0959-0.0641 0.16-0.0641 0.2558 0 0.2347 0.0535 0.3841-0.0212 0.5973-0.1279 0.3411-0.3411 0.4901-0.3411 0.8527 0 0.2027 0.0747 0.3199 0.1279 0.512 0.1064 0.3838 0.1385 0.6184 0.1705 1.0233 0.0427 0.5437-0.0535 1.0021 0.3412 1.3647 0.3305 0.2985 0.4372 0.5758 0.6399 0.981 0.3199 0.6501 0.5969 1.0554 0.5969 1.7911 0 0.3732-0.0426 0.5969-0.1706 0.938-0.0637 0.1709-0.1705 0.2452-0.1705 0.4267 0 0.5649 0.512 0.7459 0.7678 1.2365 0.1596 0.3093 0.3196 0.5225 0.6399 0.6825 0.1279 0.0638 0.1918 0.1705 0.3408 0.1705 0.1709 0 0.224-0.1493 0.3414-0.2558 0.2984-0.2773 0.437-0.48 0.6826-0.8101 0.0637 0.4154-0.0963 0.6608 0 1.0659 0.0637 0.2774 0.192 0.4049 0.2558 0.6822l-0.0853 0.3411c0.0853 0.2562 0.1494 0.4158 0.1705 0.6825-0.2879-0.2879-0.5331-0.3731-0.8957-0.5546l-0.3837 2.0473c0.0853 0.5331 0.0106 0.8637 0.1705 1.3647 0.1494 0.469 0.3521 0.7569 0.5117 1.2364 0.3734 0.4162 0.6184 0.6721 1.1092 0.9384 0.4901 0.2667 0.8958 0.5864 0.8958 1.1515 0 0.5438-0.683 0.5544-0.9388 1.0233-0.2131 0.3841-0.3411 0.661-0.3411 1.1089 0 0.4053 0.2773 0.5863 0.4694 0.938 0.4048 0.7358 0.6931 1.1301 0.9807 1.9194 0.1599 0.4475 0.2666 0.7248 0.3414 1.1938 0.0853 0.5331-0.0109 1.0024 0.3837 1.3647 0.4585 0.4264 0.7143 0.7252 1.0236 1.2794 0.0747 0.1495 0.1811 0.1921 0.2558 0.3411 0.1812 0.3626 0.2027 0.6188 0.2133 1.0236 0.0105 0.3732 0.2346 0.5653 0.5119 0.8105 0.1494 0.128 0.309 0.2237 0.3411 0.4264 0.0106 0.1174-0.0426 0.2132-0.0426 0.3411-0.011 0.3305 0.0638 0.5222 0.0852 0.8531l-0.4263 2.6864c0 0.5441 0.309 0.9384 0.8105 1.1516 0.1917 0.0747 0.3195 0.1063 0.5116 0.1706 0.6395 0.2346 0.9062 0.5972 1.5352 0.853 0.3838 0.16 0.629 0.192 1.0237 0.2981 0.2664 0.075 0.4052 0.1818 0.6825 0.2561 0.2132 0.0533 0.3732 0.0106 0.5543 0.128 0.3309 0.2135 0.3837 0.4905 0.5973 0.8104 0.4052 0.6078 0.6395 0.9701 1.1938 1.4496l0.512 0.4267c0.0535 0.0427 0.1282 0.0318 0.1709 0.0853 0.2554 0.2773 0.3836 0.5012 0.7248 0.6396 0.5758 0.2347 0.9384 0.3199 1.5353 0.512 0.1278 0.0427 0.2452 0.0427 0.3414 0.1279 0.0959 0.085 0.0959 0.2132 0.1279 0.3411 0.0852 0.3094 0.0852 0.5223 0.0852 0.8531 0 0.3727 0.3091 0.5436 0.597 0.7675 0.4478 0.352 0.8424 0.3836 1.3647 0.5972 0.5119 0.2128 0.8214 0.4795 1.0666 0.9806 0.1596 0.3197 0.2237 0.5437 0.3838 0.8527 0.2237 0.4163 0.4584 0.6079 0.6822 1.0237 0.2881 0.5437 0.3199 0.938 0.512 1.5353 0.2131 0.6395 0.4052 1.0658 0.2984 1.7487-0.0853 0.2664-0.1815 0.437-0.2128 0.7245 0.0634 0.011 0.0955 0.0857 0.1702 0.0857 0.1815 0.0211 0.2878-0.0641 0.4693-0.0857 0.0747 0.4693 0 0.7357 0 1.2051 0 0.1532 0.0011 0.2877 0.006 0.4148l0 0c0.2562 0.0853 0.4523 0.0539 0.7191 0.0863 0.2664 0.0318 0.4263 0.117 0.6825 0.1702 0.661 0.1283 1.0444 0.2136 1.7054 0.3415 0.6508 0.1276 1.0346 0.1814 1.7062 0.2558 0.5652 0.0637 0.8852 0.2132 1.45 0.2132 0.9492 0 1.482 0.1815 2.4313 0.2562 0.4691 0.0316 0.7357 0.0528 1.1938 0.1278 0.395 0.0638 0.6297 0.1065 1.024 0.1702 0.5328 0.0857 0.8211 0.1709 1.3647 0.2562 0.0212 0.3301 0.0959 0.5331 0.1706 0.8527l18.894 11.1732 15.9083 1.7912 0.2558-2.9853 9.0488 0.7258c0.2874 0.1616 0.4976 0.2948 0.6756 0.5537 0.2864 0.4169 0.2456 0.8314 0.6396 1.1515 0.4589 0.3728 0.8937 0.3117 1.3647 0.6822 0.3287 0.2587 0.3055 0.6087 0.3842 1.0233 0.0811 0.4273 0.1174 0.704 0.341 1.0666 0.0853 0.1383 0.2027 0.1703 0.3411 0.2555 0.4157 0.2561 0.6074 0.4704 1.0237 0.7251 0.4897 0.2998 0.6809 0.6536 1.1941 0.9384 0.4461 0.2478 0.8656 0.3188 1.1089 0.7674 0.1614 0.2976 0.129 0.533 0.2131 0.8532 0.0757 0.2874 0.2792 0.415 0.4264 0.6822 0.1405 0.2551 0.2112 0.417 0.3414 0.6825 0.4344 0.8856 0.8201 1.3969 0.8958 2.388 0.0203 0.2667-0.0529 0.4264 0 0.6825 0.0748 0.3625 0.2862 0.534 0.4691 0.8527 0.19 0.3315 0.2667 0.5654 0.5545 0.8105 0.4262 0.3625 0.7775 0.4907 1.1089 0.938 0.3083 0.4162 0.322 0.8495 0.7678 1.1089 0.471 0.2739 0.8528 0.2349 1.3647 0.4267 0.341 0.1276 0.5469 0.2619 0.8532 0.4686 0.9092 0.6142 1.3626 1.1148 2.3883 1.4927 0.1895 0.0698 0.2987 0.1575 0.5117 0.1709 0.1279 0.008 0.2765 0.0524 0.3414-0.0426 0.0733-0.1073 0.0623-0.2248 0.1279-0.3416 0.2221-0.395 0.6811-0.3112 1.1085-0.5112 0.4148-0.1941 0.2781-0.6828 0.512-1.0666 0.2987-0.4898 0.698-0.6255 1.0237-1.1085 0.0265-0.0394 0.0029-0.1356 0.0426-0.1709 0.1523-0.1352 0.3218-0.1013 0.5116-0.1702 0.6308-0.2295 0.9919-0.3313 1.45-0.8105 0.2453-0.2567 0.5014-0.3415 0.864-0.3415 0.3625 0 0.725 0 1.0875 0 0.6293 0 0.9487 0.2574 1.5458 0.4264 0.6078 0.1719 1.0652 0.2151 1.4929 0.6829 0.2543 0.2783 0.3097 0.5434 0.512 0.8527 0.1812 0.2768 0.3953 0.3836 0.5969 0.6396 0.1928 0.2449 0.2453 0.459 0.4691 0.6825 0.2985 0.2984 0.449 0.4431 0.8104 0.6395 0.2547 0.1386 0.4248 0.2786 0.5969 0.5118 0.3394 0.4597 0.5212 0.7368 0.8108 1.2367 0.3714 0.6409 0.5756 1.0349 0.8527 1.7062 0.2023 0.4903 0.3218 0.7663 0.64 1.1941 0.3 0.4037 0.6391 0.533 0.938 0.938 0.3302 0.4478 0.5123 0.7144 0.8104 1.1939 0.2986 0.4798 0.5589 0.712 0.853 1.1942 0.1218 0.1997 0.2139 0.3413 0.3842 0.5116 0.5332 0.5329 1.2056 0.5011 1.5776 1.1519 0.1395 0.2443 0.209 0.417 0.2987 0.6818 0.1234 0.3644 0.222 0.5771 0.3411 0.9383 0.2323 0.7044 0.2245 1.1623 0.4267 1.8768 0.1387 0.49 0.2921 0.7645 0.5543 1.1938 0.1217 0.1995 0.2787 0.2983 0.3841 0.5117 0.2997 0.6071 0.1997 1.0562 0.3837 1.7058 0.1995 0.7044 0.7781 0.9182 1.45 1.1941 0.5217 0.2142 0.8531 0.3418 1.3647 0.5973 0.1278 0.0638 0.2152 0.1563 0.3415 0.2132 0.6089 0.2735 1.0863-0.0081 1.7061 0.2555 0.3079 0.1308 0.3835 0.4055 0.6822 0.5546 0.3622 0.1809 0.6185 0.1811 1.0233 0.2135 0.3949 0.0315 0.6298 0.0531 1.0239 0.085 0.2663 0.0215 0.4384-0.0037 0.6823 0.0852 0.6623 0.2417 0.9304 0.97 1.6209 0.8104 0.5946-0.1375 1.185-0.2905 1.7798-0.4282l0 0c-0.0436-0.153-0.074-0.3179-0.074-0.5098-0.3732 0-0.7146 0.117-0.938-0.1706-0.1068-0.1494 0-0.3093 0-0.501l0-0.8743c0-0.3411-0.1494-0.5226-0.2562-0.8425-0.1279-0.2667-0.2988-0.501-0.4263-0.7678-0.1815-0.3622-0.1815-0.629-0.2562-1.0232-0.0639-0.3305-0.0639-0.5332-0.1705-0.8528-0.085-0.2667-0.2559-0.3947-0.2559-0.6825 0-0.0959 0.117-0.1064 0.1709-0.1705 0.2022-0.2348 0.3622-0.4162 0.3622-0.7358l0-1.3542c-0.1279 0.0857-0.2131 0.1283-0.3622 0.1283-0.352 0-0.7255-0.2022-0.7255-0.5546 0-0.2982 0.2988-0.5117 0.5976-0.5117 0.1279 0 0.2129 0.0857 0.3407 0.0857 0.1174 0 0.1815-0.0431 0.2989-0.0641l0 0.2343c-0.0216-0.16-0.0427-0.2559-0.0427-0.4158 0-0.3095 0.1068-0.4902 0.2129-0.7784 0.1493-0.4154 0.224-0.661 0.2987-1.1085-0.1068 0.0852-0.1921 0.2127-0.3414 0.2127-0.1702 0-0.277-0.149-0.3408-0.298-0.0535-0.128-0.1282-0.203-0.1282-0.3411 0-0.1921 0.2456-0.2027 0.4267-0.2562 0.0962-0.0211 0.1491-0.0852 0.2559-0.0852 0.1063 0 0.1493 0.0852 0.2558 0.0852 0.192 0 0.192-0.2558 0.2561-0.4263 0.1068-0.2668 0.2555-0.4159 0.3837-0.6822-0.1709-0.0427-0.3837-0.0748-0.3837-0.2562 0-0.1495 0.1068-0.2132 0.1706-0.3411 0.0958-0.1917 0.1596-0.3094 0.2558-0.5117 0.2347 0.1709 0.3623 0.3412 0.5116 0.5974 0.1279-0.2136 0.1706-0.3521 0.2988-0.5547 0.2347-0.3626 0.5437-0.4158 0.8531-0.7249 0.2879-0.2882 0.4264-0.533 0.8101-0.7251l-0.4693 0 0-0.3302c0-0.2988 0.2882-0.4161 0.5549-0.5229l0.2982 0c0.0105 0.2026 0.0105 0.3094 0 0.5117 0.5867-0.3408 0.8851-0.6393 1.5356-0.8528-0.3944-0.2132-0.4373-0.6075-0.4691-1.0659l0.1706-0.0426c0.149 0.0955 0.2449 0.2131 0.4263 0.2131 0.1706 0 0.288-0.0426 0.4264-0.1278 0.1385-0.0853 0.1705-0.2558 0.3414-0.2558 0.2239 0 0.3091 0.1807 0.5117 0.2558 0.2452 0.0852 0.4159 0.0852 0.6822 0.0852 0.4694 0 0.7358-0.0638 1.1946-0.1705 0.3411-0.0853 0.5757-0.0853 0.853-0.2989 0.2769-0.2131 0.3622-0.4369 0.6395-0.6395 0.3411-0.2558 0.5973-0.341 0.8531-0.6825 0.0959-0.1279 0.1068-0.245 0.1706-0.3834 0.1385-0.2773 0.3094-0.4161 0.4694-0.6825 0.1599-0.2562 0.2452-0.4479 0.4263-0.6826 0.149-0.1913 0.2878-0.2664 0.4693-0.4263 0.0427-0.0318 0.1382 0 0.1702-0.0427 0.0321-0.0426 0.0106-0.1173 0.0427-0.1706 0.1494-0.2237 0.1921-0.4048 0.2135-0.6821 0.0211-0.3305 0.0853-0.5226 0.0853-0.8531 0-0.2773-0.0853-0.4479-0.2135-0.6822 0.1173-0.0321 0.224-0.0426 0.3414-0.0853 0.0849-0.0321 0.1064-0.1173 0.1702-0.1709 0.363-0.3301 0.4693-0.6606 0.9387-0.8954-0.0321 0.1812-0.0856 0.2985-0.0856 0.4906 0 0.1702-0.0747 0.3305 0.0427 0.4479 0.1603 0.1599 0.3519 0.149 0.5119 0.2984 0.1491 0.1384 0.1706 0.2985 0.1706 0.5116 0 0.2664-0.2344 0.3838-0.4264 0.5547 0.3305-0.0747 0.5331-0.0642 0.8531-0.1709 0.6289-0.2023 0.9704-0.4585 1.5353-0.8101 0.4373-0.2664 0.7572-0.32 1.2367-0.512 0.7037-0.2876 1.0984-0.4581 1.8341-0.6396 0.8102-0.2026 1.2795-0.2241 2.0899-0.3837 0.2879-0.0532 0.469-0.1705 0.7678-0.1705 0.2449 0 0.3728 0.1278 0.597 0.2131 0.501 0.2023 0.8315 0.2562 1.3647 0.3411 0.2987 0.0427 0.469 0.2132 0.7783 0.2132 1.1407 0 1.7915-0.0106 2.9321-0.0106-0.0427-0.1705-0.0853-0.2773-0.0853-0.4584 0-0.1706-0.0532-0.2984 0.0426-0.4268 0.0747-0.0954 0.2242-0.0528 0.3415-0.0852 0.0747-0.0211 0.0955-0.0954 0.1705-0.1275 0.3411-0.1921 0.4158-0.64 0.8101-0.64 0.1494 0 0.2135 0.1495 0.3415 0.2136 0.2452 0.117 0.4267 0.1275 0.6822 0.2128 0.1709-0.0211 0.2561-0.0853 0.4263-0.0853 0.1068 0 0.1283 0.1068 0.2136 0.1709 0.1279 0.0959 0.2026 0.1702 0.3411 0.2555 0.4158 0.2773 0.6825 0.4694 1.1942 0.5546 0.032-0.0958 0.0852-0.149 0.0852-0.2558 0-0.1814-0.1064-0.2561-0.1705-0.4263-0.0427-0.1174-0.0427-0.2241-0.0853-0.3415-0.1709-0.4048-0.5226-0.4796-0.7252-0.853-0.2023-0.3623-0.2023-0.6075-0.2984-1.0233l0.1709-0.0427c0.2343 0.2132 0.3517 0.3841 0.6395 0.512 0.2558 0.117 0.469 0.1068 0.6825 0.2985 0.2664 0.2343 0.3411 0.4901 0.3838 0.8531 0.0747 0.5969-0.0747 0.938 0 1.5349 0.0212 0.1705 0.0637 0.2561 0.0853 0.4263l-0.2133 1.1516c0.3201 0.1815 0.5332 0.2984 0.8528 0.4693 0.3947 0.2132 0.5652 0.5543 1.0239 0.5543 0.1386 0 0.2129-0.0747 0.3408-0.1279 0.203-0.0747 0.352-0.1706 0.4694-0.3411 0.1709-0.2347 0.2237-0.5546 0.5225-0.5546 0.3943 0 0.6075 0.0426 1.0025 0.0426 0.3728 0 0.4902 0.4267 0.8633 0.4267 0.1494 0 0.2238-0.1388 0.3411-0.2135 0.1815-0.117 0.3204-0.2023 0.5123-0.2985 0.3091-0.149 0.6393-0.2879 0.6393-0.6395 0-0.6078-0.1386-0.9489-0.2559-1.5353-0.0211-0.1169 0-0.2562-0.0852-0.3411-0.0853-0.0853-0.2238-0.0535-0.3408-0.0853-0.1389-0.0429-0.2135-0.1067-0.3414-0.1709-0.1921-0.0958-0.4694-0.1173-0.4694-0.3411 0-0.0852 0.1177-0.0958 0.128-0.1705l0.1705-0.6822c0.2135 0.0533 0.3203 0.16 0.5123 0.2558 0.1914 0.0962 0.4155 0.1065 0.5117 0.2985 0.1278 0.2558 0.149 0.4479 0.298 0.6822 0.1815 0.277 0.4162 0.3626 0.6829 0.5546 0.2555 0.1917 0.4049 0.3306 0.6818 0.4694 0.6403 0.3195 1.0879 0.3834 1.7063 0.7245 0.5761 0.3199 0.7251 0.7572 1.1092 1.2794 0.3408-0.1811 0.4475-0.4475 0.7248-0.7248 0.1495-0.1491 0.2562-0.2664 0.3414-0.4693 0.0744-0.1808 0.2133-0.2661 0.2133-0.4691 0-0.1921-0.1604-0.277-0.2559-0.4264-0.3199-0.4795-0.6293-0.7783-1.1945-0.8957-0.1174-0.0211-0.2132 0.0109-0.3411 0-0.3626-0.0426-0.5225-0.1916-0.8527-0.3407-0.1921-0.0857-0.4267-0.1283-0.4267-0.3415 0-0.2878 0.2131-0.4052 0.2131-0.6931l0-0.7995c0.2668 0 0.4264-0.0743 0.6826-0.1279 0.4052-0.0747 0.661-0.0959 1.0236-0.2984 0.0637-0.0321 0.0423-0.1174 0.0849-0.1706-0.2237-0.2985-0.2984-0.5864-0.6391-0.7252-0.1178-0.0426-0.2242-0.0426-0.3415-0.0853-0.1495-0.0637-0.1705-0.2984-0.3414-0.2984-0.245 0-0.3411 0.192-0.5543 0.2984-0.4479 0.2343-0.7357 0.3838-1.2474 0.3838l-0.5011 0c0.0744-0.2347 0.2132-0.3516 0.2132-0.5969 0-0.1702 0.0532-0.3411-0.0856-0.4263-0.2453-0.1495-0.4264-0.1921-0.6822-0.3416-0.0962 0.2027-0.2023 0.3095-0.3414 0.4694-0.1491 0.1709-0.2343 0.4264-0.4797 0.4264l-1.0447 0c-0.4799 0-0.8531-0.1812-1.0772-0.5969-0.2237-0.4267-0.6501-0.5758-0.6822-1.0663 0.3946-0.032 0.6501 0.0215 1.0236-0.0853 0.2239-0.0638 0.3196-0.2237 0.5117-0.3411 0.1815-0.1067 0.3308-0.1811 0.5116-0.2984 0.2456 0.2452 0.48 0.309 0.8105 0.4264 0.384 0.1384 0.6184 0.2452 1.0236 0.3414 0.6504 0.1596 0.9919 0.4264 1.6636 0.4264 0.2449 0 0.3942-0.1388 0.5969-0.2562 0.3305-0.1917 0.4689-0.4048 0.7678-0.6396 0.5436-0.4373 0.8636-0.7572 1.5356-0.9809l0.3407 0.0856c1.0666-0.1709 1.6635-0.2668 2.7298-0.3414 0.3517-0.0216 0.5973-0.011 0.8954-0.1709 0.1388-0.0744 0.192-0.1918 0.2988-0.2982 0.4482-0.4479 0.661-0.7784 0.8957-1.3647 0.1491 0.4475 0.3623 0.6502 0.6395 1.0236 0.2238 0.2985 0.3947 0.5966 0.7678 0.5966 0.7573 0 1.1622-0.2343 1.919-0.2555 0.203 0 0.3524 0.0747 0.5124-0.0426 0.1705-0.1174 0.1705-0.3094 0.2129-0.512 0.0747-0.32 0.0852-0.5222 0.0852-0.8527 0.1173 0.0105 0.1709 0.0426 0.2882 0.0426 0.3838 0 0.5649-0.2558 0.9489-0.2558 0.1495 0 0.2023 0.1279 0.3411 0.1705 0.1812 0.0638 0.3095 0.0853 0.5117 0.0853 0.3414 0 0.5335-0.1388 0.853-0.2558 0.5117-0.1921 0.8211-0.3415 1.3652-0.3415 0.5648 0 0.8312 0.3415 1.3647 0.512 0.2449 0.0744 0.4264-0.0109 0.6822 0.0427 0.3731 0.0743 0.5546 0.2452 0.9387 0.3411l1.0233-0.128c0.224 0.0747 0.3516 0.2133 0.4267 0.4264 0.0637 0.1921 0.0426 0.352 0.1702 0.512 0.2346 0.277 0.544 0.2879 0.8957 0.3838 0.2773 0.0747 0.4908 0.149 0.6399 0.3836 0.149 0.2348 0.1064 0.4797 0.2985 0.6822 0.1599 0.1709 0.3305 0.2136 0.5116 0.3411l-0.1705 0c0.5545-0.0426 0.9383-0.2984 1.4499-0.5113 0.2562-0.1067 0.4162-0.224 0.6829-0.2987 0.2555-0.0747 0.4901 0 0.6818-0.1706 0.2241-0.192 0.2456-0.4905 0.512-0.5969 0.2453-0.1068 0.4905 0 0.6826-0.1705 0.1384-0.128 0.1279-0.3095 0.1279-0.512 0.0105-0.2985 0.0426-0.4691 0.0426-0.7675 0.3411 0 0.5226-0.1279 0.8637-0.1279l0.8319 0c0.1382 0 0.2128 0.0528 0.3516 0.0427 0.1386-0.011 0.2027-0.128 0.3415-0.128 0.266 0 0.4154 0.1381 0.6822 0.1706 0.2664 0.0317 0.4796 0 0.6825 0.1705 0.0533 0.0427 0.0427 0.1174 0.0853 0.1705 0.2554 0.277 0.4584 0.4585 0.6821 0.7678 0.2242 0.2982 0.4264 0.4797 0.512 0.8528 0.0212 0.1173-0.0429 0.2238 0 0.3411 0.0853 0.2452 0.3517 0.2452 0.597 0.341 0.2026 0.0747 0.32 0.1921 0.5117 0.2989 0.8956 0.5222 1.4714 0.7037 2.3883 1.1942 0.5973 0.3195 0.8957 0.6927 1.1518 1.3217 0.1068 0.2559 0.3411 0.3837 0.3411 0.6716l0 0.8743c0 0.533 0.2558 0.8104 0.2558 1.3435 0 0.6075-0.0426 0.9486-0.0426 1.5564l0 0.2558c0 0.5011 0.1174 0.7784 0.2135 1.2689 0.0533 0.2668 0.1061 0.4373 0.2129 0.6822 0.0535 0.1283 0.0215 0.3414 0.1706 0.3414 0.2135 0 0.4376-0.0211 0.5123-0.2131 0.0743-0.1921 0.0955-0.3204 0.1702-0.512 0.352 0.0853 0.6184 0.1063 0.8531 0.3837 0.1705 0.203 0.1279 0.4158 0.1279 0.6825 0 0.3411-0.0533 0.5543-0.2132 0.8531-0.1385 0.2554-0.3411 0.3838-0.3411 0.6818 0 0.2242 0.2129 0.3094 0.3411 0.4694 0.1279 0.1596 0.2026 0.2984 0.2558 0.512 0.1068 0.426 0.1921 0.6716 0.4267 1.0233 0.3626 0.5225 0.7358 0.6931 1.2795 1.0236 0.2022 0.117 0.3196 0.2449 0.5116 0.3838 0.1599-0.16 0.1599-0.3197 0.2562-0.5117 0.0321-0.0642 0.1173-0.0427 0.1701-0.0852l0.512 0c0.0642 0.4369 0.1283 0.6927 0.3411 1.0658 0.1601 0.2879 0.2454 0.5543 0.5543 0.6825 0.3203 0.1386 0.5335 0.1706 0.8535 0.2982-0.1279 0.1709-0.2984 0.2882-0.2984 0.512 0 0.4479 0.5327 0.4479 0.8523 0.7674 0.3094 0.3094 0.3629 0.5973 0.4693 1.0236 0.1178 0.4799 0.1921 0.7678 0.4267 1.1942 0.1386 0.2558 0.4158 0.277 0.6822 0.3838 0.5653 0.2346 0.9173 0.4267 1.3225 0.8956 0.2026 0.2344 0.277 0.4264 0.5116 0.6396 0.6079 0.5437 0.8852 1.2368 1.7062 1.2368 0.0747 0 0.1068-0.0747 0.1705-0.0853 0.1385 0.0959 0.3411 0.1601 0.3411 0.3415 0 0.2769-0.1388 0.4796-0.3837 0.5966-0.1067 0.0426-0.2132-0.0102-0.3414 0-0.0853 0.0108-0.0959 0.1067-0.1705 0.1279 0.224 0.2882 0.4908 0.3841 0.853 0.3841 0.5226 0 0.6289-0.6823 1.1515-0.6823 0.2985 0 0.4694 0.0853 0.7675 0.0853 0.3841 0 0.5335-0.3629 0.7255-0.6825 0.2555-0.4155 0.3943-0.6932 0.469-1.1939l-0.2135-0.9387c0.0856-0.7138 0.3093-1.087 0.4267-1.791 0.1388-0.8637 0.1174-1.3432 0.2558-2.2171l-0.2558-1.7914c0.0215-0.2348 0.0109-0.3732 0.0422-0.5969 0.0642-0.3947 0.1709-0.6188 0.1709-1.0237 0-0.6825-0.1169-1.0874-0.4689-1.6632-0.277-0.4584-0.4264-0.7462-0.7252-1.1941-0.1385-0.2027-0.2558-0.3517-0.2558-0.5969 0-0.1386 0.1279-0.2027 0.1279-0.3415 0-0.4902-0.3411-0.6924-0.5969-1.1085-0.1603-0.2668-0.2988-0.4159-0.4694-0.6825-0.512-0.7672-0.7678-1.2581-1.1515-2.0893-0.2344-0.501-0.5437-0.704-0.853-1.1515-0.2023-0.2988-0.2985-0.5335-0.4691-0.8531-0.2452-0.469-0.3735-0.7675-0.6825-1.1942-0.2027-0.2879-0.4694-0.4158-0.5547-0.7674 0.6403 0.0531 0.9493 0.3199 1.5357 0.5543-0.1279-0.2668-0.2026-0.4475-0.3838-0.6823-0.2135-0.2663-0.4478-0.3203-0.6825-0.5546-0.1811-0.1811-0.2667-0.3305-0.4267-0.5116-0.309-0.3414-0.5863-0.5222-0.8101-0.938-0.3521-0.6505-0.4799-1.0878-0.8957-1.7061-0.3411-0.5012-0.7355-0.6717-1.0236-1.1938-0.2449-0.4479-0.32-0.7574-0.5117-1.2369-0.0747-0.2026-0.2132-0.309-0.2988-0.5116-0.309-0.6931-0.3729-1.1622-0.6395-1.8767-0.0959-0.2774-0.2348-0.4155-0.3414-0.6822-0.2344-0.5864-0.2344-0.981-0.5544-1.5349-0.5651 0.7565-0.5969 1.4281-0.5969 2.377 0 0.6716 0.0959 1.0448 0 1.7168-0.1283-0.5547-0.1493-0.9067-0.2988-1.4504-0.1491-0.5328-0.469-0.7992-0.469-1.3643 0-0.3626 0.1068-0.5973 0.3415-0.8531 0.0426-0.0533 0.1275-0.0317 0.1702-0.0853 0.1493-0.16 0.1705-0.3407 0.2987-0.5117 0.128-0.1705 0.3411-0.2452 0.3411-0.4693 0-0.629-0.0958-0.9913-0.1705-1.6205-0.032-0.3305-0.0747-0.5328-0.1279-0.8527-0.0427-0.2559-0.0427-0.4264-0.0853-0.6822-0.0321-0.1815-0.2561-0.2348-0.2561-0.4267 0-0.4585 0.384-0.6506 0.384-1.1086 0-0.2347-0.1279-0.3629-0.1279-0.5973 0-0.2981 0.1385-0.469 0.1706-0.7675 0.0747-0.5972 0.0321-0.9594 0.1705-1.5352 0.117-0.4799 0.309-0.7037 0.3837-1.1946 0.3094-0.3407 0.6399-0.5112 0.6399-0.9805 0-0.2774-0.2134-0.405-0.2134-0.6822 0-0.5012 0.4693-0.6928 0.4693-1.1943 0-0.4048-0.1921-0.6183-0.2559-1.0232 0.0638-0.0106 0.0959-0.0853 0.1706-0.0853 0.2136 0 0.2562 0.2981 0.4694 0.2981 0.3516 0 0.3305-0.4584 0.4689-0.7671 0.1276-0.2882 0.4479-0.2882 0.7252-0.4267 0.3728-0.1811 0.7036-0.1068 1.0233-0.3838 0.2347-0.2025 0.2452-0.4583 0.4693-0.6825 0.3623-0.3622 0.6611-0.4475 1.0233-0.81 0.2667-0.2664 0.4588-0.48 0.5123-0.8532 0.0106-0.1173-0.0429-0.2237 0-0.3407 0.0959-0.2562 0.3944-0.192 0.597-0.3841 0.2241-0.2026 0.2347-0.4584 0.4264-0.6825 0.0426-0.0533 0.1278-0.0317 0.1705-0.0853 0.2453-0.2769 0.2988-0.5331 0.4693-0.853 0.1385-0.2555 0.3091-0.3838 0.3411-0.6819 0.0215-0.2026-0.0853-0.3308 0-0.5119 0.0533-0.1171 0.1921-0.1492 0.2989-0.2133 0.3301-0.2131 0.4154-0.5014 0.5969-0.8531 0.2131-0.3942 0.3301-0.629 0.5542-1.0232 0.1389-0.2453 0.1921-0.4267 0.2989-0.6826 0.3089-0.7568 0.5542-1.1832 0.9809-1.8763 0.3091-0.501 0.6717-0.6931 1.1942-0.9807 0.3943-0.2131 0.6074-0.4161 1.0233-0.5972 0.384-0.1706 0.6614-0.1812 1.0236-0.3837 0.523-0.2985 0.5437-0.8207 0.6826-1.407 0.2025-0.8105 0.192-1.3222 0.5972-2.0473 0.1169-0.2132 0.277-0.2879 0.4264-0.469 0.0853-0.1068 0.149-0.2241 0.2131-0.3415 0.2238-0.3626 0.4373-0.5222 0.7252-0.8527 0.5226-0.5973 0.746-1.1195 1.4931-1.3647 0.3086-0.0959 0.5221-0.0532 0.8523-0.0853 0.3629-0.0427 0.5229-0.2558 0.8531-0.3841 0.2029-0.0743 0.4376-0.0528 0.5116-0.2555 0.0641-0.1815 0.0324-0.3202 0.0857-0.5116 0.0958-0.3309 0.2452-0.5011 0.2984-0.8531-0.2559-0.1067-0.3943-0.2984-0.6822-0.2984-0.1921 0-0.1815 0.2449-0.3411 0.3411-0.1815 0.1064-0.3305 0.1811-0.512 0.2981-0.2449 0.1603-0.4264 0.2347-0.6825 0.3841-0.1279 0.0747-0.1921 0.2135-0.3408 0.2135-0.4376 0-0.6403-0.3415-0.8957-0.6829 0.5222-0.1275 0.8633-0.0426 1.3648-0.2555 0.1916-0.0747 0.2025-0.2984 0.2128-0.512 0.0538-0.3305 0.075-0.5432 0.1709-0.8527 0.0426-0.1278 0.1279-0.1917 0.1279-0.3305 0-0.1174-0.0321-0.1921-0.0427-0.3093-0.4689 0-0.7357 0.1172-1.1941 0.0426-0.2562-0.0426-0.4267-0.1065-0.6822-0.1706 0.4581-0.4585 1.0764-0.1384 1.5352-0.5965l-0.1278-0.5124c0.2237-0.2233 0.4048-0.4263 0.7248-0.4263 0.2452 0 0.4157 0.1173 0.5546 0.2984 0.1279 0.16 0.1706 0.3841 0.3837 0.3841 0.2238 0 0.3091-0.2136 0.512-0.2989 0.6181-0.2663 0.9169-0.6289 1.1938-1.2364 0.1921-0.4373 0.2667-0.7248 0.3414-1.1941 0.0533-0.3305 0.1706-0.5117 0.1706-0.8531 0-0.6181-0.3199-1.0342-0.8957-1.3221-0.192 0.2988-0.2667 0.5014-0.3411 0.853-0.0637 0.2989-0.1173 0.6822-0.4263 0.6822-0.2456 0-0.3947-0.1384-0.5973-0.2558-0.0638-0.0316-0.0853-0.1169-0.1705-0.1275-0.2668-0.0321-0.4264 0-0.6931 0l-1.0452 0c-0.5437 0-0.6716 0.5222-1.1621 0.7675-0.0211-0.2668-0.0853-0.4268-0.1279-0.6826-0.0532-0.3196-0.0321-0.5437-0.128-0.8527-0.0852-0.2668-0.1813-0.4369-0.2131-0.7252l0.5011 0c0.1709 0 0.2346 0.1388 0.3516 0.2562 0.203 0.2022 0.2989 0.4048 0.5551 0.5543 0.2448-0.2454 0.4368-0.3306 0.6821-0.5543 0.1064-0.0963 0.0961-0.2774 0.2132-0.3411 0.0532-0.0321 0.1173 0.0105 0.1705 0 0.1174-0.0321 0.2347-0.0321 0.3414-0.0857 0.2023-0.1064 0.1597-0.3732 0.3408-0.5116 0.0962-0.0747 0.2136-0.0853 0.3414-0.0853 0.1389 0 0.2027 0.1279 0.3411 0.1279 0.1706 0 0.1921-0.2131 0.2132-0.3837l-1.0659-1.9616 0.0427-0.1709c0.2131-0.0317 0.3195-0.0743 0.5116-0.1705-0.1705-0.3517-0.4053-0.4903-0.6822-0.7675-0.1599-0.16-0.2241-0.32-0.3414-0.512-0.0321-0.0529 0-0.1385-0.0427-0.1702-0.0962-0.0748-0.2135-0.043-0.3414-0.043-0.4049 0-0.629 0.1709-1.0339 0.1709-0.3949 0-0.6078-0.0106-1.0024-0.0106-0.1596 0-0.2023-0.1494-0.3517-0.2029-0.1174-0.0317-0.2241-0.0212-0.3415-0.0427-0.4904-0.1174-0.7462-0.2879-1.2368-0.3837 0.2989-0.1491 0.5226-0.1385 0.8531-0.2132 0.2026-0.0426 0.3196-0.1279 0.5331-0.1279 0.2774 0 0.437 0.1173 0.7037 0.1706 0.0641 0.0105 0.0959 0.0853 0.1706 0.0853 0.0856 0 0.0962-0.1068 0.1705-0.128-0.3305-0.5757-0.6606-0.821-1.2368-1.1516-0.2449-0.1384-0.4264-0.1599-0.6395-0.341 0.3946 0 0.5969-0.1812 0.9383-0.3837 0.0532-0.0321 0.1279-0.011 0.1706-0.0427 0.1811-0.1494 0.2558-0.3517 0.2558-0.5973 0-0.2237-0.2241-0.2984-0.4264-0.3836-0.2667-0.1174-0.4267-0.1918-0.6825-0.3411-0.4052-0.2348-0.6079-0.4373-1.0236-0.6396-0.1174-0.0535-0.2238-0.0641-0.3411-0.1282-0.0533-0.0318-0.0106-0.1171-0.0427-0.1702 0.1174-0.0748 0.1917-0.2136 0.3411-0.2136 0.2667 0 0.4373 0.0321 0.6822 0.1279 0.1389 0.0536 0.192 0.2132 0.352 0.2132l0.6931 0 0-0.8206c0-0.4268-0.3414-0.6185-0.7037-0.8426-0.0532-0.0317-0.1173-0.0105-0.1705-0.0423-0.4158-0.2561-0.5011-0.6399-0.9384-0.853l0.0853-0.1706c0.2879 0 0.4584-0.0215 0.7248-0.1283 0.1494-0.0532 0.3415-0.1275 0.3415-0.298 0-0.5441-0.6505-0.5653-1.0663-0.8958-0.4799-0.3837-0.2347-0.9806-0.5117-1.5353-0.2455-0.501-0.4263-0.81-0.5119-1.3647-0.0317-0.192-0.0532-0.3305-0.1279-0.5116-0.1811-0.4158-0.5973-0.5652-0.5973-1.0236 0-0.2879 0.1388-0.4264 0.2559-0.6822 0.0214-0.0536-0.0212-0.1174 0-0.1709 0.1282-0.2985 0.3093-0.4369 0.5123-0.6822 0.2022-0.2452 0.3727-0.3732 0.5542-0.6396 0.2027-0.2987 0.277-0.5545 0.5543-0.7678 0.0215 0.3732 0.2132 0.5653 0.2132 0.9384 0 0.3199-0.16 0.48-0.2984 0.7674-0.0427 0.0962-0.128 0.1495-0.128 0.2562 0 0.3407 0.2558 0.5116 0.2558 0.8527 0 0.2879-0.2558 0.3947-0.2558 0.6826 0 0.1811 0.0638 0.3306 0.2132 0.4263 0.1068 0.0639 0.2453-0.032 0.3415 0.0427 0.1068 0.0853 0.0955 0.2131 0.1278 0.3411 0.0744 0.2664 0.1065 0.4795 0.3411 0.6396 0.1706 0.1067 0.4264 0.1282 0.4264 0.3414 0 0.2343-0.2452 0.2984-0.4264 0.4264 0.2242 0.5436 0.5543 0.8636 1.1089 1.0658 0.1811 0.0641 0.3626 0.011 0.5117 0.1283 0.1705 0.1279 0.1814 0.309 0.2558 0.5117 0.0748 0.192 0.1815 0.309 0.2132 0.5116 0.0747 0.3946 0.0962 0.6931 0.3841 0.9809l1.3221 0c0.0109 0.128 0.0426 0.2027 0.0426 0.3307 0 0.8636-0.8101 1.1938-0.8101 2.0578 0 0.6822 0.3305 1.0232 0.3834 1.7054 0.0962-0.1917 0.1388-0.3196 0.2135-0.5116 0.1494-0.3626 0.4267-0.4906 0.5547-0.8531 0.0958-0.2664 0.0422-0.4581 0.1275-0.7249 0.1603-0.5225 0.2562-0.8206 0.2988-1.3647 0.032-0.469-0.0105-0.7248 0.0426-1.1941 0.0962-0.8102 0.3305-1.2365 0.4264-2.0469 0.0106-0.128 0.0853-0.2027 0.0853-0.3305l0-1.0448c0-0.3411-0.1491-0.5116-0.2132-0.8422-0.0532-0.2559-0.0106-0.4372-0.0852-0.6826-0.0744-0.2449-0.2664-0.3731-0.5117-0.4689-0.3411-0.1386-0.5331-0.2453-0.8531-0.4264-0.3516-0.2026-0.5652-0.352-0.8527-0.6396-0.0539-0.0535-0.1392-0.0641-0.1709-0.1282-0.352-0.5863-0.2453-1.0554-0.4267-1.7058-0.0533-0.2026-0.1382-0.2985-0.1706-0.5116 0.3626 0.0532 0.5225 0.2131 0.8531 0.3411 0.512 0.2131 0.8316 0.2987 1.3651 0.4263 0.2558 0.0641 0.4905 0.011 0.6818 0.1706 0.2562 0.224 0.0966 0.544 0.1282 0.8956 0.0212 0.2668 0.1068 0.4264 0.1706 0.6826 0.1495-0.2026 0.32-0.2882 0.4267-0.512 0.277-0.5542 0.2344-0.9489 0.4264-1.5353 0.1814-0.5437 0.4162-0.81 0.5543-1.3647 0.1282-0.5116 0.0853-0.8315 0.1282-1.3643 0.0106-0.2133 0.1064-0.3095 0.1705-0.512 0.1174-0.3732 0.0959-0.629 0.128-1.0233 0.0959-1.2689 0.7678-1.8873 0.7678-3.1559 0-0.1709-0.0106-0.2666-0.0427-0.4267-0.0105-0.0531 0.0212-0.1278 0-0.1705-0.032-0.0532-0.1067-0.0532-0.1709-0.0853-0.2237-0.1173-0.4158-0.0747-0.6822-0.0853-0.3308-0.0105-0.5222-0.0641-0.853-0.0852-0.0106-0.1173-0.0426-0.192-0.0426-0.309 0-0.661 0.0106-1.0877 0.2561-1.6952 0.1061-0.2668 0.2664-0.4053 0.3408-0.6826 0.0747-0.2558 0.0535-0.4475 0.1709-0.6821 0.1705-0.3517 0.3411-0.5332 0.5542-0.8532 0.4162-0.6074 0.5868-1.0127 1.109-1.5353 0.1709-0.1702 0.3516-0.2022 0.512-0.3836 0.1916-0.2133 0.2984-0.3838 0.5116-0.597 0.3946-0.3943 0.6825-0.5543 1.1942-0.7674 0.4158-0.1705 0.6289-0.3305 1.0239-0.5547 0.6501-0.3732 1.0765-0.5116 1.7055-0.938 0.1494-0.0962 0.203-0.224 0.3414-0.3414 0.2985-0.2558 0.5226-0.3732 0.8531-0.5969 0.3091-0.2027 0.5116-0.3411 0.8527-0.4691 0.1174-0.0429 0.2242-0.0429 0.3415-0.0856 0.0852-0.0316 0.1064-0.1063 0.1705-0.1705 0.1494-0.1491 0.2664-0.2664 0.3411-0.469 0.1068-0.3091 0-0.5437 0.0853-0.8527 0.1279-0.4694 0.3841-0.7037 0.3841-1.1942 0.2026 0.0959 0.3196 0.1491 0.5116 0.2558 0.0532 0.0211 0.1279 0 0.1706 0.0426 0.1494 0.1494 0.1068 0.3091 0.1709 0.5117 0.4901-0.117 0.8527-0.1491 1.1938-0.5117 0.203-0.2131 0.1921-0.4263 0.3414-0.6825 0.1491-0.2664 0.2558-0.426 0.4264-0.6822 0.2241 0.2241 0.3626 0.3415 0.5543 0.5969 0.4481-0.2343 0.5652-0.6075 0.9387-0.938 0.2343-0.2026 0.4795-0.224 0.6822-0.469 0.1494-0.1814 0.2135-0.3305 0.3414-0.512 0.0955-0.1279 0.2555-0.16 0.3411-0.2984 0.2237-0.3411 0.3408-0.6075 0.3408-1.0233 0-0.4588-0.5223-0.5546-0.938-0.7252-0.4479-0.1811-0.6822-0.3411-1.1513-0.5116 0.0955 0.4479 0.1382 0.7995 0.5117 1.0663 0.0427 0.0212 0.1276 0.0106 0.1702 0.0426 0.1709 0.1596 0.2135 0.3516 0.2135 0.5969 0 0.3091-0.0109 0.5437-0.2135 0.7674-0.1917 0.2027-0.4155 0.2133-0.6819 0.2985-0.352 0.1174-0.5655 0.2135-0.9383 0.2135-0.3203 0-0.5229-0.1599-0.7251-0.3837-0.1495-0.1709-0.3095-0.2667-0.4268-0.4694-0.192-0.3199-0.2773-0.5436-0.469-0.8527-0.1174-0.1919-0.2026-0.3414-0.3841-0.4693-0.0422-0.0211-0.0638-0.1064-0.1275-0.1064-0.1921 0-0.3095 0.0211-0.5014 0.0211-0.5863 0-0.7358-0.7354-0.7358-1.3221 0-0.2984-0.0426-0.4904 0.0427-0.7674 0.1068-0.3732 0.3836-0.5011 0.5542-0.8531-0.3408-0.2558-0.6289-0.2879-1.0233-0.469-0.1173-0.0532-0.2987-0.0747-0.2987-0.2132 0-0.1279 0.0746-0.2237 0.0856-0.3411 0.0637-0.3947 0.1063-0.629 0.1705-1.0236 0.1706-1.0663 0.1812-1.7273 0.5969-2.729 0.1068-0.2668 0.2668-0.4163 0.3837-0.6826 0.2773-0.6184 0.3309-1.0237 0.3841-1.7059 0.309-0.5436 0.6826-0.6716 1.1942-1.0236 0.5547-0.3837 0.6825-0.821 1.0236-1.4073 0.1494-0.2664 0.2668-0.4796 0.5543-0.5969 0.1173-0.0427 0.2456-0.0215 0.3415-0.0853 0.1811-0.1173 0.2449-0.2985 0.2987-0.5116 0.1061-0.3732 0.0634-0.6399 0.1276-1.0237 0.032-0.192 0.1279-0.2984 0.1279-0.5011l0-0.8636-0.298-0.8528c0.1916-0.0425 0.3195-0.0852 0.5116-0.1278 0.0747-0.0109 0.0853-0.1283 0.1702-0.1283 0.224 0 0.2452 0.2773 0.3414 0.469 0.0959 0.1921 0.16 0.3094 0.2558 0.512 0.3411-0.1064 0.6505-0.0853 0.8528-0.3838 0.0641-0.0962 0.0112-0.224 0.0425-0.3411 0.054-0.2134 0.1815-0.3308 0.2989-0.5119 0.1279-0.1917 0.2135-0.3305 0.3414-0.5117 0.0532-0.0747 0.0744-0.1705 0.1706-0.1705 0.1917 0 0.2558 0.1705 0.4263 0.2558 0.0536 0.0212 0.1174-0.0106 0.1709 0 0.1702-0.309 0.1487-0.5542 0.3408-0.8531 0.2561-0.3942 0.5651-0.5222 0.8957-0.8527 0.1709-0.1705 0.2773-0.2879 0.469-0.4264 0.555-0.4161 0.7358-0.8315 1.0666-1.4499 0.192-0.3732 0.3837-0.5969 0.3837-1.0237 0-0.2026-0.0106-0.3626-0.1282-0.5116-0.1382-0.1705-0.3517-0.1811-0.5116-0.3411-0.1491-0.1495-0.1491-0.32-0.2129-0.512-0.0853-0.2347-0.2882-0.3091-0.4693-0.469l0 0c-0.4369-0.0637-0.6612-0.3838-1.0664-0.5118-0.2558-0.0853-0.4904-0.0321-0.6825-0.2132-0.1064-0.0958-0.149-0.2241-0.2132-0.3415-0.3305-0.5327-0.4902-0.9164-1.0237-1.2364-0.2448-0.1493-0.4048-0.2132-0.6821-0.2558-0.1916-0.0321-0.3735 0.0532-0.5117-0.0852-0.1388-0.1389-0.0641-0.32-0.1282-0.5117-0.2347-0.7037-0.6396-1.013-0.8957-1.7061-0.16-0.4479-0.1812-0.7464-0.3408-1.1942-0.3203-0.8633-0.5651-1.3433-0.8531-2.2175-0.1282-0.4052-0.2346-0.6395-0.4267-1.0236-0.0962-0.1918-0.1278-0.3731-0.2984-0.5117-0.2667-0.2237-0.5335-0.1705-0.8531-0.2984-0.4799-0.192-0.7569-0.4263-1.2798-0.4263-0.3196 0-0.4584 0.2768-0.5966 0.5542-0.0965 0.1917-0.1815 0.3305-0.2987 0.512-0.4155 0.2769-0.8531 0.1917-1.2369 0.5116-0.0535 0.0427-0.0426 0.1174-0.0853 0.1705-0.3093 0.3944-0.5757 0.5653-0.9809 0.8528-0.4162-0.5758-0.9489-0.6716-1.3648-1.2368 0 0.6399-0.4478 0.9066-0.5542 1.5356-0.0966 0.5969-0.2242 0.9486-0.3415 1.5353-0.1068 0.5116-0.0852 0.8421-0.1705 1.3643-0.1174 0.7572-0.2136 1.1942-0.2136 1.962 0 1.3221 0.1921 2.0575 0.2989 3.369l0 1.0554c0 0.5331-0.0641 0.8636-0.1706 1.3756-0.0641 0.3517-0.1709 0.5437-0.3411 0.8524-0.0747 0.1494-0.192 0.1921-0.2561 0.3414-0.0321 0.0747-0.128 0.0853-0.128 0.1706 0 0.2664 0.3841 0.2879 0.3841 0.5543 0 0.3519-0.1389 0.544-0.1709 0.8957-0.0211 0.2667 0.0641 0.4263 0 0.6821-0.0106 0.0747-0.1173 0.0857-0.1705 0.1283-0.16 0.1385-0.3095 0.2343-0.5116 0.2981-0.3201 0.1068-0.5336 0.1389-0.8531 0.2562-0.2985 0.1068-0.3736 0.3626-0.5117 0.6396-0.1389 0.2773-0.2561 0.4583-0.2561 0.7678 0 0.1705 0.0535 0.2664 0.0852 0.4263l-12.6243 4.9043c-0.3199 0.1599-0.7037 0.0538-1.0238 0.2134-0.7454 0.4592-1.224 0.7795-1.6631 1.5349-0.6698 1.1526-1.0603 1.8788-1.5617 3.1046l0 0c0.0731 0.0544 0.1116 0.1649 0.1116 0.2645 0 0.32-0.1597 0.4905-0.2985 0.7678-0.1705 0.3411-0.2879 0.5543-0.5116 0.8527-0.3305 0.4479-0.64 0.629-0.9384 1.109-0.1493 0.2452-0.3841 0.3837-0.3841 0.6825 0 0.1706 0.16 0.2558 0.2989 0.3411 0.2667 0.1811 0.4795 0.2558 0.8104 0.2558 0.2449 0 0.3516-0.1705 0.597-0.1705 0.0746 0 0.1066 0.0747 0.1705 0.0853l0 1.0126c0 0.2453-0.128 0.3732-0.2559 0.5652-0.032 0.0533-0.1709 0.0106-0.1709 0.0853 0 0.2985 0.1815 0.4369 0.3415 0.6825 0.1388 0.2023 0.2132 0.3407 0.3837 0.5116 0.1068 0.1065 0.2989 0.1386 0.2989 0.2985 0 0.3305-0.3095 0.4264-0.5547 0.6395-0.3411 0.2985-0.6396 0.3626-1.0236 0.5974-0.1706 0.1063-0.2347 0.2558-0.3415 0.4263-0.1276 0.1917-0.309 0.2347-0.5116 0.3411-0.277 0.1494-0.4691 0.2558-0.7678 0.3411-0.7675 0.2347-1.1085 0.5758-1.8338 0.9384-0.2773 0.1384-0.4798 0.1384-0.7674 0.2558-0.4161 0.1705-0.6614 0.2984-1.1093 0.2984-0.3093 0-0.4584-0.2131-0.7678-0.2131-0.4369 0-0.6821 0.1599-1.1085 0.2558-0.5653 0.1278-0.8531 0.2987-1.3647 0.5545-0.4588 0.2239-0.7358 0.3517-1.1945 0.5544-0.405 0.1811-0.6502 0.2773-1.0663 0.4263l-0.0001 0c0.2773 0.8425 0.4815 1.3857 1.0037 2.0894l0.0001-0.0001c0.035-0.0111 0.0752-0.0182 0.1054-0.0424 0.1384 0.1921 0.2346 0.3305 0.3837 0.512 0.1064 0.128 0.2984 0.1705 0.2984 0.3411 0 0.2985-0.192 0.4373-0.3414 0.6822-0.3728 0.5972-0.7244 0.853-1.1512 1.4077-0.2237 0.2981-0.3199 0.5222-0.5969 0.7675-0.1388 0.117-0.2667 0.1596-0.3837 0.2984-0.2136 0.2453-0.3094 0.4369-0.555 0.6396-0.1916 0.1599-0.3408 0.224-0.5542 0.3841-0.7249 0.5542-1.0339 1.0236-1.578 1.7484-0.4479 0.5969-0.9383 0.7568-1.5782 1.1512-0.4264 0.2667-0.5758 0.5651-1.0237 0.8104-0.1384 0.0744-0.2558 0.0744-0.3837 0.1705-0.2879 0.2133-0.3947 0.4264-0.6821 0.6396-0.4373 0.3199-0.7041 0.5226-1.0664 0.9384-0.224 0.2664-0.4587 0.3305-0.6825 0.5969-0.4689 0.5441-0.7146 1.0451-1.4073 1.2368-0.9067 0.2558-1.2903 0.7357-2.1326 1.1515-0.5226 0.2558-0.8319 0.4264-1.3647 0.6399-0.0747 0.0212-0.0962 0.1065-0.1709 0.1275-0.277 0.0963-0.4901 0.0857-0.7248 0.2559-0.1067-0.0853-0.2022-0.1385-0.2561-0.2559-0.1068-0.2131-0.0639-0.5542-0.3091-0.5542l-1.3432 0c-0.3414 0-0.5437-0.1068-0.8637-0.2132-0.3094-0.0959-0.7252-0.1384-0.7252-0.469 0-0.3947 0.2985-0.5546 0.5543-0.853 0.32-0.3732 0.4796-0.6931 0.512-1.1938l0 0c-0.0535-0.1601-0.1463-0.3232-0.1064-0.491 0.1204-0.5043 0.2415-1.0091 0.3623-1.5137z"/>
    <g id="capitals">
      <circle class="capital" cx="38.654" cy="37.6853" r="0.5"/>
      <circle class="capital" cx="34.2266" cy="49.5545" r="0.5"/>
      <circle class="capital" cx="62.1098" cy="66.2279" r="0.5"/>
      <circle class="capital" cx="31.0709" cy="91.0967" r="0.5"/>
      <circle class="capital" cx="40.1141" cy="89.9192" r="0.5"/>
      <circle class="capital" cx="72.5189" cy="134.853" r="0.5"/>
      <circle class="capital" cx="79.3955" cy="88.6475" r="0.5"/>
      <circle class="capital" cx="84.2468" cy="50.8262" r="0.5"/>
      <circle class="capital" cx="132.807" cy="54.1703" r="0.5"/>
      <circle class="capital" cx="134.974" cy="69.2423" r="0.5"/>
      <circle class="capital" cx="113.449" cy="89.1185" r="0.5"/>
      <circle class="capital" cx="112.177" cy="98.4914" r="0.5"/>
      <circle class="capital" cx="105.395" cy="123.784" r="0.5"/>
      <circle class="capital" cx="149.056" cy="159.533" r="0.5"/>
      <circle class="capital" cx="149.245" cy="126.61" r="0.5"/>
      <circle class="capital" cx="157.723" cy="102.825" r="0.5"/>
      <circle class="capital" cx="152.448" cy="91.6619" r="0.5"/>
      <circle class="capital" cx="166.625" cy="64.2497" r="0.5"/>
      <circle class="capital" cx="185.126" cy="73.9524" r="0.5"/>
      <circle class="capital" cx="170.016" cy="87.6584" r="0.5"/>
      <circle class="capital" cx="186.878" cy="94.8647" r="0.5"/>
      <circle class="capital" cx="173.636" cy="105.322" r="0.5"/>
      <circle class="capital" cx="176.987" cy="128.824" r="0.5"/>
      <circle class="capital" cx="204.294" cy="115.633" r="0.5"/>
      <circle class="capital" cx="189.327" cy="143.048" r="0.5"/>
      <circle class="capital" cx="185.088" cy="155.718" r="0.5"/>
      <circle class="capital" cx="222.297" cy="149.171" r="0.5"/>
      <circle class="capital" cx="209.957" cy="139.045" r="0.5"/>
      <circle class="capital" cx="218.812" cy="128.4" r="0.5"/>
      <circle class="capital" cx="212.641" cy="101.553" r="0.5"/>
      <circle class="capital" cx="218.717" cy="87.3758" r="0.5"/>
      <circle class="capital" cx="203.787" cy="92.1329" r="0.5"/>
      <circle class="capital" cx="208.167" cy="72.0683" r="0.5"/>
      <circle class="capital" cx="245.564" cy="79.4159" r="0.5"/>
      <circle class="capital" cx="257.245" cy="73.9994" r="0.5"/>
      <circle class="capital" cx="255.502" cy="83.702" r="0.5"/>
      <circle class="capital" cx="250.428" cy="86.4261" r="0.5"/>
      <circle class="capital" cx="227.242" cy="96.7487" r="0.5"/>
      <circle class="capital" cx="248.686" cy="94.585" r="0.5"/>
      <circle class="capital" cx="245.47" cy="108.053" r="0.5"/>
      <circle class="capital" cx="236.003" cy="122.654" r="0.5"/>
      <circle class="capital" cx="258.187" cy="46.7285" r="0.5"/>
      <circle class="capital" cx="265.017" cy="50.4494" r="0.5"/>
      <circle class="capital" cx="270.103" cy="40.4171" r="0.5"/>
      <circle class="capital" cx="268.408" cy="54.8768" r="0.5"/>
      <circle class="capital" cx="268.219" cy="59.3513" r="0.5"/>
      <circle class="capital" cx="263.133" cy="61.2353" r="0.5"/>
      <circle class="capital" cx="254.749" cy="56.9021" r="0.5"/>
    </g>
  </g>
</svg>
